# xmcd
#
# Track frame offsets:
#	150
#	14942
#	29303
#	42377
#	57301
#	71135
#	85674
#	98673
#	113226
#	127608
#	141602
#	154913
#	168746
#	181737
#	194573
#	208917
#	222371
#	235572
#	250378
#	265055
#	280736
#	293814
#	307313
#
# Disc length: 4271 seconds
#
# Revision: 0
# Processed by: cddbd v1.5.2PL0 Copyright (c) Steve Scherf et al.
# Submitted via: EZCDAudioConverter 7.1.2.1
#
DISCID=6410ad17
DTITLE=Blind Willie McTell - 1927-1940
DYEAR=1900
DGENRE=Blues
TTITLE0=Rough Alley Blues
TTITLE1=Experience Blues
TTITLE2=Painful Blues
TTITLE3=Low Rider's Blues
TTITLE4=Georgia Rag
TTITLE5=Low Down Blues
TTITLE6=Rollin' Mama Blues
TTITLE7=Lonesome Day Blues
TTITLE8=Mama, Let Me Scoop For You
TTITLE9=Searching The Desert For The Blues
TTITLE10=Warm It Up To Me
TTITLE11=It's Your Time To Worry
TTITLE12=It's A Good Little Thing
TTITLE13=You Was Bown To Die
TTITLE14=Dirty Mistreater
TTITLE15=Love Have Mercy If You Please
TTITLE16=Don't You See How This World Made A Change
TTITLE17=Savannah Mama
TTITLE18=Broke Down Engine
TTITLE19=Broke Down Engine #2 (take 2)
TTITLE20=Broke Down Engine #2 (take 3)
TTITLE21=My Baby's Gone
TTITLE22=Love Makin' Mama (take 1)
EXTD=
EXTT0=
EXTT1=
EXTT2=
EXTT3=
EXTT4=
EXTT5=
EXTT6=
EXTT7=
EXTT8=
EXTT9=
EXTT10=
EXTT11=
EXTT12=
EXTT13=
EXTT14=
EXTT15=
EXTT16=
EXTT17=
EXTT18=
EXTT19=
EXTT20=
EXTT21=
EXTT22=
PLAYORDER=
